<svg width="1080" height="1080" viewBox="0 0 1080 1080" fill="none" xmlns="http://www.w3.org/2000/svg">
<rect width="1080" height="1080" fill="#FAFAFA"/>
<circle cx="540" cy="575.535" r="300" fill="#FF5945"/>
<path d="M502.483 656.816L426.378 580.711L437.311 569.793L502.483 634.965L642.689 494.759L653.607 505.693L502.483 656.816Z" fill="#FAFAFA"/>
<path fill-rule="evenodd" clip-rule="evenodd" d="M812.727 380.155C827.866 361.448 836.423 339.636 836.423 313.985C836.423 253.242 785.78 204 723.308 204C683.368 204 646.416 226.364 626.289 256.757C703.636 274.641 768.018 313.985 812.727 380.155Z" fill="#FF5945"/>
<path fill-rule="evenodd" clip-rule="evenodd" d="M267.273 380.155C252.134 361.448 243.577 339.636 243.577 313.985C243.577 253.242 294.22 204 356.692 204C396.632 204 433.584 226.364 453.711 256.757C376.364 274.641 311.982 313.985 267.273 380.155Z" fill="#FF5945"/>
</svg>
